@startuml classDia
left to right direction

skinparam linetype ortho
package "Food Ordering App" {
    package "Model" {
        class Order {
            +int orderID
            +DateTime orderDate
            +OrderStatus 
            +list<OrderItem> items
            +Customer customer
            +Payment payment
            +void calculateTotal()
        }
        class OrderItem {
            +int itemID
            +int quantity
            +double price
        }
        class Customer {
            +int customerID
            +string name
            +string email
            +string password
            +void register()
            +bool verifyEmail()
        }
        class Cook {
            +int cookID
            +string name
            +string email
            +string password
            +void login()
            +bool verifyRegisteredEmail()
        }
        class Admin {
            +int adminID
            +string name
            +string email
            +string password
            +void manageMenu()
            +void manageUsers()
            +void viewReports()
        }
        class Menu {
            +int menuID
            +string itemName
            +string category
            +double price
        }
        class Payment {
            +int paymentID
            +double amount
            +string status
            +bool verifyPayment()
            +void handlePaymentFailure()
        }
    }

    package "View" {
        class CustomerView {
            +void displayMenu()
            +void displayCart()
            +void displayOrderStatus()
            +void displayOrderHistory()
            +void displayFeedbackForm()
        }
        class CookView {
            +void displayOrders()
            +void displayOrderDetails()
        }
        class AdminView {
            +void displayMenuManagement()
            +void displayUserManagement()
            +void displayReports()
        }
    }

    package "Controller" {
        class OrderController {
            +void placeOrder()
            +void trackOrder()
            +void markOrderComplete()
            +void provideFeedback()
        }
        class PaymentController {
            +void processPayment()
            +void handlePaymentFailure()
        }
        class UserController {
            +void registerUser()
            +void loginUser()
            +void resetPassword()
            +void verifyEmail()
        }
        class AdminController {
            +void manageMenu()
            +void manageUsers()
            +void viewReports()
        }
    }

    Model --> View
    View <-- Controller
    Controller -r-> Model
    Model-->Controller
}
@enduml
